<svg width="631" height="893" viewBox="0 0 631 893" fill="none" xmlns="http://www.w3.org/2000/svg">
<mask id="mask0" mask-type="alpha" maskUnits="userSpaceOnUse" x="0" y="0" width="631" height="893">
<rect width="631" height="893" fill="#C4C4C4"/>
</mask>
<g mask="url(#mask0)">
<path fill-rule="evenodd" clip-rule="evenodd" d="M-101.5 554C62.2524 554 195 421.252 195 257.5C195 93.7476 62.2524 -39 -101.5 -39C-265.252 -39 -398 93.7476 -398 257.5C-398 421.252 -265.252 554 -101.5 554ZM-101.5 398.475C-23.6414 398.475 39.4755 335.359 39.4755 257.5C39.4755 179.641 -23.6414 116.525 -101.5 116.525C-179.359 116.525 -242.475 179.641 -242.475 257.5C-242.475 335.359 -179.359 398.475 -101.5 398.475Z" fill="#F1D218" fill-opacity="0.6"/>
<path fill-rule="evenodd" clip-rule="evenodd" d="M683.5 917C779.321 917 857 839.321 857 743.5C857 647.679 779.321 570 683.5 570C587.679 570 510 647.679 510 743.5C510 839.321 587.679 917 683.5 917ZM683.5 825.993C729.06 825.993 765.993 789.06 765.993 743.5C765.993 697.94 729.06 661.007 683.5 661.007C637.94 661.007 601.007 697.94 601.007 743.5C601.007 789.06 637.94 825.993 683.5 825.993Z" fill="#F1D218" fill-opacity="0.6"/>
</g>
</svg>
